<?xml version="1.0" standalone="no"?>
<!DOCTYPE svg PUBLIC "-//W3C//DTD SVG 20010904//EN"
 "http://www.w3.org/TR/2001/REC-SVG-20010904/DTD/svg10.dtd">
<svg version="1.0" xmlns="http://www.w3.org/2000/svg"
 width="500.000000pt" height="500.000000pt" viewBox="0 0 500.000000 500.000000"
 preserveAspectRatio="xMidYMid meet">

<g transform="translate(0.000000,500.000000) scale(0.100000,-0.100000)"
fill="#000000" stroke="none">
<path d="M2128 3350 c-57 -31 -85 -75 -110 -178 l-22 -92 -57 0 -56 0 -6 43
c-4 30 -14 50 -37 70 -29 26 -34 27 -146 27 l-116 0 -34 -34 c-26 -26 -34 -42
-34 -70 l0 -36 -57 0 c-80 0 -132 -16 -172 -53 -59 -56 -61 -67 -61 -380 l0
-284 25 -11 c46 -21 50 -11 47 103 l-3 105 145 0 146 0 0 -99 0 -99 31 -11
c31 -11 87 -15 62 -4 -9 3 -13 35 -13 112 l0 107 34 12 c44 16 92 70 105 119
6 21 11 98 11 171 l0 132 123 0 123 0 28 117 c23 93 35 124 57 145 l27 28 334
0 334 0 26 -27 c20 -21 34 -58 55 -143 l29 -115 198 -3 c280 -4 276 1 276
-289 l0 -173 -35 0 c-19 0 -35 -4 -35 -9 0 -4 19 -6 43 -4 30 3 38 1 27 -6 -8
-5 -31 -9 -53 -9 -21 0 -41 -2 -44 -6 -4 -3 7 -6 23 -6 22 -1 48 -18 104 -70
66 -61 72 -70 50 -70 -20 0 -22 -2 -10 -10 11 -7 7 -10 -18 -10 -24 0 -31 4
-26 13 4 6 4 9 -1 5 -5 -5 -24 4 -44 19 -29 21 -32 22 -17 5 19 -22 19 -22 -7
-22 -14 0 -28 -4 -31 -9 -3 -5 8 -7 24 -6 16 1 27 -1 24 -6 -3 -5 39 -9 93 -8
54 0 92 3 85 6 -6 2 -9 10 -6 15 4 7 2 8 -4 4 -10 -6 -38 17 -167 137 -6 5 10
8 43 5 48 -3 57 1 53 25 -2 12 44 8 58 -5 11 -10 13 -10 7 0 -10 18 29 15 44
-3 7 -8 24 -15 38 -15 14 0 35 -8 46 -17 20 -17 20 -17 6 0 -13 18 -11 18 26
13 21 -3 30 -3 19 0 -11 3 -24 11 -30 16 -7 8 -5 9 8 5 9 -4 17 -3 17 2 0 10
-85 21 -172 21 l-68 0 0 183 c0 196 -7 240 -45 285 -48 57 -83 66 -272 70
l-172 4 -16 72 c-25 107 -47 151 -96 183 l-43 28 -340 2 c-323 2 -343 1 -378
-17z m-344 -206 c10 -4 16 -18 16 -35 l0 -29 -105 0 -105 0 0 29 c0 16 6 32
13 34 18 8 162 8 181 1z m-56 -295 l-3 -151 -33 -29 -32 -29 -185 0 -185 0 0
135 c0 219 6 224 263 225 l178 0 -3 -151z m1907 -329 c3 -5 -1 -10 -9 -10 -8
0 -18 5 -21 10 -3 6 1 10 9 10 8 0 18 -4 21 -10z m50 -11 c-7 -10 -35 -1 -35
11 0 5 9 6 20 3 11 -3 17 -9 15 -14z m-151 -157 c3 -5 -1 -9 -9 -9 -8 0 -12 4
-9 9 3 4 7 8 9 8 2 0 6 -4 9 -8z"/>
<path d="M1392 2910 c-28 -26 -36 -59 -29 -118 8 -71 27 -82 152 -82 100 0
104 1 124 26 32 41 30 136 -4 169 -22 23 -31 25 -123 25 -85 0 -101 -3 -120
-20z m188 -95 l0 -35 -70 0 -70 0 0 35 0 35 70 0 70 0 0 -35z"/>
<path d="M2210 3185 l0 -35 290 0 290 0 0 35 0 35 -290 0 -290 0 0 -35z"/>
<path d="M2380 3065 c-154 -31 -272 -95 -380 -206 -76 -78 -122 -151 -155
-246 -29 -83 -49 -204 -41 -246 4 -18 1 -36 -6 -45 -11 -13 -10 -15 10 -10 12
4 22 2 22 -3 0 -12 41 -11 60 1 12 8 12 10 1 10 -11 0 -13 17 -8 93 11 195
109 370 268 477 199 136 458 146 665 25 106 -62 212 -187 259 -303 33 -85 38
-112 20 -112 -8 0 -15 -7 -15 -15 0 -8 -5 -15 -11 -15 -5 0 -8 4 -5 9 3 5 -2
11 -12 13 -11 3 -23 23 -31 49 -80 272 -381 442 -655 370 -103 -27 -176 -70
-257 -150 -105 -105 -159 -238 -159 -390 l0 -69 45 -4 c25 -2 53 0 63 5 13 6
12 6 -5 3 -22 -4 -23 -2 -23 73 0 135 47 248 142 338 100 93 201 133 340 133
174 0 335 -104 414 -266 37 -77 43 -114 19 -114 -8 0 -15 -8 -14 -17 0 -11 3
-13 6 -5 2 6 9 12 14 12 6 0 7 -5 3 -11 -4 -7 2 -9 17 -7 20 2 29 -6 51 -47
33 -63 33 -65 3 -65 -14 0 -25 -4 -25 -9 0 -6 -9 -8 -20 -6 -11 2 -18 0 -15
-6 4 -5 2 -9 -3 -9 -10 0 -48 116 -46 143 2 22 -27 19 -33 -3 -4 -11 -2 -12 5
-2 6 9 14 -6 25 -48 21 -72 20 -70 2 -70 -8 0 -15 -7 -15 -16 0 -13 11 -14 83
-8 45 3 86 9 92 12 5 3 28 5 52 3 27 -2 43 2 43 9 0 6 -4 8 -10 5 -5 -3 -10 0
-10 7 0 9 -3 9 -10 -2 -6 -10 -10 -11 -10 -2 0 6 -7 12 -15 12 -8 0 -15 -4
-15 -8 0 -5 -6 -9 -14 -9 -7 0 -27 28 -44 63 l-31 62 39 10 39 10 43 -66 c24
-36 46 -70 50 -76 4 -6 9 -8 12 -5 3 3 -16 38 -43 77 l-49 71 41 7 c38 6 43 4
70 -27 56 -66 87 -116 71 -116 -8 0 -14 4 -14 9 0 13 -28 9 -33 -4 -4 -10 -6
-10 -6 0 -1 6 -9 12 -18 11 -11 0 -13 -3 -5 -6 6 -2 10 -9 7 -14 -4 -5 31 -8
80 -8 47 0 85 4 85 9 0 5 -9 7 -20 5 -11 -2 -22 1 -25 6 -4 5 -10 7 -15 4 -6
-4 -70 69 -131 150 -5 7 0 11 12 12 11 1 17 -3 13 -8 -3 -6 4 -5 15 3 21 12
20 13 -13 16 -33 3 -36 6 -51 60 -50 171 -182 331 -347 417 -125 66 -311 96
-438 70z m743 -582 c-7 -2 -19 -2 -25 0 -7 3 -2 5 12 5 14 0 19 -2 13 -5z
m-186 -179 c-3 -3 -12 -4 -19 -1 -8 3 -5 6 6 6 11 1 17 -2 13 -5z"/>
<path d="M3195 2921 c-27 -12 -61 -51 -70 -79 -9 -32 12 -88 42 -112 42 -33
98 -27 139 14 36 36 43 71 24 120 -17 45 -91 76 -135 57z m70 -92 c5 -13 1
-27 -8 -36 -21 -21 -57 -8 -57 21 0 12 3 26 7 29 15 15 52 6 58 -14z"/>
<path d="M2431 2624 c-113 -30 -185 -124 -186 -244 l0 -65 33 1 c17 1 32 0 32
-2 0 -2 -13 -17 -28 -32 -34 -32 -12 -19 42 27 25 21 32 31 20 29 -15 -2 -20
4 -22 31 -5 49 24 115 63 145 97 75 222 50 276 -55 11 -22 17 -44 13 -50 -3
-6 4 -13 16 -16 20 -5 21 -10 15 -51 -10 -65 -14 -73 -41 -68 -13 3 -24 0 -24
-5 0 -6 15 -9 33 -7 31 3 32 5 42 67 8 51 14 65 31 72 27 9 40 29 21 29 -8 0
-22 20 -31 44 -45 116 -179 182 -305 150z"/>
<path d="M3260 2522 c0 -4 18 -6 40 -4 22 2 40 6 40 8 0 2 -18 4 -40 4 -22 0
-40 -3 -40 -8z"/>
<path d="M3780 2508 l35 -11 -30 -7 c-25 -6 -26 -8 -7 -9 13 0 31 3 40 8 17 9
70 -4 59 -15 -3 -3 -15 -1 -26 6 -12 6 -21 7 -21 2 0 -9 33 -22 57 -22 7 0 10
7 7 15 -6 16 -49 31 -109 39 l-40 6 35 -12z"/>
<path d="M3255 2499 c-18 -7 -17 -8 4 -8 14 -1 39 -13 55 -28 29 -26 29 -26 8
-2 -12 14 -22 30 -22 35 0 13 -18 14 -45 3z"/>
<path d="M2444 2471 c-39 -24 -42 -29 -52 -83 -7 -35 -5 -46 10 -61 16 -15 19
-15 24 -2 4 8 17 15 29 15 13 0 25 5 27 12 2 6 12 9 21 5 16 -6 15 -11 -10
-49 -15 -24 -32 -46 -38 -50 -5 -4 -6 -10 -2 -15 5 -4 12 -1 17 7 7 10 10 11
10 3 0 -8 13 -13 32 -13 35 0 34 8 -3 13 -30 5 -30 12 0 65 20 34 30 42 53 42
17 0 27 4 23 10 -3 6 1 7 9 4 21 -8 20 -20 -4 -73 -11 -24 -20 -45 -20 -48 0
-12 54 4 57 17 4 12 3 13 -5 1 -18 -26 -23 23 -7 69 8 24 13 45 10 48 -3 3 -5
1 -5 -4 0 -5 -9 9 -19 32 -12 27 -30 46 -54 57 -45 22 -65 21 -103 -2z m84
-74 c15 -18 2 -32 -30 -32 -27 -1 -39 21 -21 38 11 11 40 8 51 -6z"/>
<path d="M3500 2487 c0 -2 15 -16 33 -33 l32 -29 -29 33 c-28 30 -36 37 -36
29z"/>
<path d="M2843 2435 c0 -11 4 -12 14 -4 7 6 13 13 13 15 0 2 -6 4 -13 4 -8 0
-14 -7 -14 -15z"/>
<path d="M2797 2426 c-3 -8 -2 -16 2 -18 5 -2 11 -29 13 -60 l4 -57 -28 6
c-18 4 -28 1 -28 -6 0 -7 -4 -9 -10 -6 -5 3 -10 1 -10 -4 0 -12 33 -15 44 -4
3 4 29 6 56 4 43 -2 50 0 50 16 0 15 -2 16 -10 3 -9 -13 -10 -13 -10 0 0 13
-1 13 -10 0 -9 -13 -10 -13 -10 0 0 13 -2 13 -9 1 -11 -17 -26 87 -18 119 6
23 -18 28 -26 6z"/>
<path d="M3599 2397 l35 -37 -30 -1 c-16 0 -23 -3 -16 -6 6 -2 10 -8 8 -12 -3
-4 1 -8 9 -8 8 0 12 3 10 7 -2 3 8 7 21 8 15 1 23 -2 19 -8 -4 -6 -11 -8 -16
-5 -5 4 -9 1 -9 -4 0 -7 24 -11 58 -11 40 0 53 3 42 10 -11 7 -7 10 17 10 25
0 31 -4 27 -15 -5 -12 2 -15 32 -14 34 1 36 2 14 9 -25 8 -25 8 5 10 25 2 26
3 7 7 -13 3 -30 -1 -39 -9 -9 -7 -14 -8 -10 -2 3 6 -8 21 -26 34 -18 14 -26
17 -18 7 12 -15 11 -17 -5 -18 -11 -1 -23 -1 -27 0 -5 1 -6 -3 -2 -9 9 -15
-16 -12 -34 5 -9 8 -36 31 -61 52 l-45 37 34 -37z"/>
<path d="M3760 2426 c0 -2 8 -10 18 -17 15 -13 16 -12 3 4 -13 16 -21 21 -21
13z"/>
<path d="M3680 2416 c0 -2 8 -10 18 -17 15 -13 16 -12 3 4 -13 16 -21 21 -21
13z"/>
<path d="M2640 2390 c0 -5 5 -10 11 -10 5 0 7 5 4 10 -3 6 -8 10 -11 10 -2 0
-4 -4 -4 -10z"/>
<path d="M3800 2396 c0 -2 8 -10 18 -17 15 -13 16 -12 3 4 -13 16 -21 21 -21
13z"/>
<path d="M3861 2343 c7 -12 15 -20 18 -17 3 2 -3 12 -13 22 -17 16 -18 16 -5
-5z"/>
<path d="M1301 2341 c-9 -6 -6 -10 10 -14 28 -8 34 -3 16 11 -7 6 -19 7 -26 3z"/>
<path d="M1362 2322 c-18 -12 57 -34 76 -23 12 7 10 10 -9 16 -49 14 -54 14
-67 7z"/>
<path d="M3895 2321 c3 -5 -3 -12 -12 -14 -10 -2 -8 -3 5 -2 12 1 22 -2 22 -6
0 -5 10 -9 23 -8 l22 0 -22 9 c-13 5 -23 14 -23 20 0 5 -5 10 -11 10 -5 0 -8
-4 -4 -9z"/>
<path d="M2120 2311 c0 -6 10 -8 21 -6 33 6 36 15 6 15 -15 0 -27 -4 -27 -9z"/>
<path d="M1638 2303 c7 -3 16 -2 19 1 4 3 -2 6 -13 5 -11 0 -14 -3 -6 -6z"/>
<path d="M3965 2299 c-9 -14 0 -22 18 -17 13 2 13 5 2 15 -10 9 -16 9 -20 2z"/>
<path d="M1465 2289 c-18 -9 -18 -9 3 -5 12 2 22 1 22 -4 0 -13 63 -21 74 -9
8 8 5 9 -13 4 -18 -5 -22 -4 -16 5 5 9 4 11 -3 6 -6 -4 -20 -3 -29 2 -11 6
-26 6 -38 1z"/>
<path d="M2360 2265 l-34 -35 49 0 c62 0 57 7 -14 19 -3 1 6 12 19 26 13 14
21 25 19 25 -3 0 -20 -16 -39 -35z"/>
<path d="M4121 2245 c63 -18 116 -31 118 -29 2 2 -2 4 -10 4 -12 0 -11 2 1 11
13 9 12 10 -2 5 -10 -3 -20 -1 -23 3 -3 5 -14 7 -25 4 -12 -3 -22 1 -26 11 -3
9 -10 16 -16 16 -5 0 -7 -4 -4 -9 3 -4 -7 -6 -22 -3 -21 4 -23 6 -9 11 10 4
-7 7 -39 7 -56 1 -56 1 57 -31z"/>
<path d="M1593 2259 c12 -7 27 -7 45 0 25 9 24 9 -18 10 -36 0 -41 -2 -27 -10z"/>
<path d="M1688 2243 c7 -3 16 -2 19 1 4 3 -2 6 -13 5 -11 0 -14 -3 -6 -6z"/>
<path d="M1720 2240 c0 -5 14 -10 30 -10 17 0 30 5 30 10 0 6 -13 10 -30 10
-16 0 -30 -4 -30 -10z"/>
<path d="M2215 2240 c-11 -4 -23 -6 -27 -4 -4 3 -9 1 -11 -4 -3 -4 25 -9 61
-10 61 -3 83 3 36 11 -10 1 -23 5 -29 9 -5 3 -19 2 -30 -2z"/>
<path d="M1810 2230 c0 -5 5 -10 10 -10 6 0 10 5 10 10 0 6 -4 10 -10 10 -5 0
-10 -4 -10 -10z"/>
<path d="M1846 2232 c-3 -5 11 -9 30 -9 22 0 30 3 22 9 -17 10 -45 10 -52 0z"/>
<path d="M2100 2230 c-12 -7 -10 -9 7 -7 12 0 19 5 17 9 -6 10 -6 10 -24 -2z"/>
<path d="M4260 2200 c8 -5 20 -10 25 -10 6 0 3 5 -5 10 -8 5 -19 10 -25 10 -5
0 -3 -5 5 -10z"/>
<path d="M1470 2013 c0 -107 12 -123 91 -123 52 0 60 2 57 18 -2 13 -15 18
-55 20 l-52 3 -3 77 c-3 64 -6 77 -20 80 -16 3 -18 -6 -18 -75z"/>
<path d="M1670 2075 c0 -12 15 -15 75 -15 60 0 75 3 75 15 0 12 -15 15 -75 15
-60 0 -75 -3 -75 -15z"/>
<path d="M1875 2058 c-3 -18 -5 -62 -3 -98 2 -52 6 -65 21 -68 15 -3 17 6 17
75 l0 78 46 -77 c37 -64 49 -78 69 -78 25 0 25 0 25 100 0 82 -3 100 -15 100
-12 0 -15 -15 -15 -77 l0 -78 -46 78 c-36 62 -49 77 -69 77 -19 0 -25 -6 -30
-32z"/>
<path d="M2122 2078 c-7 -7 -12 -29 -12 -50 0 -44 19 -58 79 -58 34 0 41 -3
41 -20 0 -18 -7 -20 -60 -20 -53 0 -60 -2 -60 -20 0 -18 7 -20 63 -20 73 0 87
10 87 61 0 45 -13 57 -70 61 -37 2 -45 6 -45 23 0 17 8 20 58 23 42 2 57 7 57
17 0 19 -120 21 -138 3z"/>
<path d="M2332 2078 c-30 -38 -20 -169 14 -182 9 -3 40 -6 70 -6 47 0 54 3 54
20 0 16 -8 19 -57 22 l-58 3 -3 54 c-4 64 3 71 71 71 35 0 47 4 47 15 0 12
-14 15 -64 15 -39 0 -67 -5 -74 -12z"/>
<path d="M2520 2076 c0 -11 15 -16 63 -18 56 -3 62 -5 65 -25 3 -22 0 -23 -62
-23 l-66 0 0 -60 c0 -53 2 -60 20 -60 17 0 20 7 20 41 0 38 1 40 28 37 19 -2
32 -13 47 -40 11 -22 28 -38 38 -38 21 0 21 3 1 42 -15 28 -14 33 2 64 14 26
16 40 8 61 -9 27 -12 28 -87 31 -63 2 -77 0 -77 -12z"/>
<path d="M2823 2078 c-11 -14 -73 -168 -73 -180 0 -18 38 -6 43 12 4 15 14 20
36 20 36 0 44 28 11 37 -11 3 -20 6 -20 8 0 14 24 64 29 60 4 -2 20 -36 35
-74 21 -53 33 -71 47 -71 18 0 18 2 -2 53 -12 28 -29 72 -39 97 -18 47 -47 63
-67 38z"/>
<path d="M3000 2075 c0 -12 15 -15 75 -15 60 0 75 3 75 15 0 12 -15 15 -75 15
-60 0 -75 -3 -75 -15z"/>
<path d="M3207 2083 c-15 -15 -5 -23 28 -23 l34 0 3 -82 c3 -70 6 -83 21 -86
15 -3 17 6 17 82 l0 86 35 0 c24 0 35 5 35 15 0 12 -16 15 -83 15 -46 0 -87
-3 -90 -7z"/>
<path d="M1677 2003 c-13 -12 -7 -68 9 -91 13 -19 24 -22 75 -22 52 0 59 2 59
19 0 17 -8 20 -52 23 -41 2 -54 7 -56 21 -3 14 5 17 52 17 49 0 56 2 56 20 0
18 -7 20 -68 20 -38 0 -72 -3 -75 -7z"/>
<path d="M3007 2003 c-4 -3 -7 -30 -7 -60 0 -40 4 -53 15 -53 11 0 15 11 15
40 l0 39 57 3 c46 2 59 7 61 21 3 15 -5 17 -66 17 -38 0 -72 -3 -75 -7z"/>
<path d="M2163 1754 c-9 -24 10 -49 41 -52 40 -5 30 -35 -14 -43 l-35 -6 36
-2 c68 -2 79 57 13 69 -36 6 -38 24 -4 28 42 6 47 22 7 22 -26 0 -40 -5 -44
-16z"/>
<path d="M2260 1760 c0 -5 7 -10 15 -10 11 0 15 -12 15 -50 0 -27 5 -50 10
-50 6 0 10 23 10 50 0 38 4 50 15 50 8 0 15 5 15 10 0 6 -18 10 -40 10 -22 0
-40 -4 -40 -10z"/>
<path d="M2364 1715 c1 -58 2 -60 29 -63 42 -5 57 13 57 69 0 66 -18 63 -22
-3 -3 -49 -5 -53 -28 -53 -23 0 -26 5 -31 55 l-6 55 1 -60z"/>
<path d="M2470 1710 l0 -60 33 0 c42 0 57 15 57 60 0 45 -15 60 -57 60 l-33 0
0 -60z m68 38 c7 -7 12 -24 12 -38 0 -30 -17 -50 -42 -50 -15 0 -18 9 -18 50
0 41 3 50 18 50 10 0 23 -5 30 -12z"/>
<path d="M2585 1710 c0 -47 3 -60 15 -60 12 0 15 13 15 60 0 47 -3 60 -15 60
-12 0 -15 -13 -15 -60z"/>
<path d="M2652 1758 c-17 -17 -15 -83 2 -97 8 -7 27 -11 43 -9 27 3 28 5 28
58 0 54 -1 55 -30 58 -17 2 -36 -3 -43 -10z m63 -48 c0 -41 -2 -45 -25 -45
-21 0 -26 5 -28 33 -5 47 4 64 30 60 20 -3 23 -9 23 -48z"/>
<path d="M2767 1763 c-4 -3 -7 -16 -7 -29 0 -23 17 -34 52 -34 35 0 17 -34
-22 -42 l-35 -6 40 1 c37 2 40 4 40 32 0 27 -4 30 -32 33 -43 4 -45 32 -3 32
17 0 30 5 30 10 0 11 -53 14 -63 3z"/>
</g>
</svg>
